<mxfile host="Electron" modified="2024-02-05T18:02:19.364Z" agent="Mozilla/5.0 (Windows NT 10.0; Win64; x64) AppleWebKit/537.36 (KHTML, like Gecko) draw.io/22.1.2 Chrome/114.0.5735.289 Electron/25.9.4 Safari/537.36" etag="4B_CrQ89BGxONj7UZpov" version="22.1.2" type="device">
  <diagram id="C5RBs43oDa-KdzZeNtuy" name="Page-1">
    <mxGraphModel dx="1780" dy="864" grid="1" gridSize="10" guides="1" tooltips="1" connect="1" arrows="1" fold="1" page="1" pageScale="1" pageWidth="827" pageHeight="1169" math="0" shadow="0">
      <root>
        <mxCell id="WIyWlLk6GJQsqaUBKTNV-0" />
        <mxCell id="WIyWlLk6GJQsqaUBKTNV-1" parent="WIyWlLk6GJQsqaUBKTNV-0" />
        <mxCell id="v-dNHV7s0jWdKENIAIiw-3" style="edgeStyle=orthogonalEdgeStyle;rounded=0;orthogonalLoop=1;jettySize=auto;html=1;entryX=0.5;entryY=0;entryDx=0;entryDy=0;" parent="WIyWlLk6GJQsqaUBKTNV-1" source="v-dNHV7s0jWdKENIAIiw-1" target="v-dNHV7s0jWdKENIAIiw-2" edge="1">
          <mxGeometry relative="1" as="geometry" />
        </mxCell>
        <mxCell id="v-dNHV7s0jWdKENIAIiw-1" value="Начало" style="ellipse;whiteSpace=wrap;html=1;" parent="WIyWlLk6GJQsqaUBKTNV-1" vertex="1">
          <mxGeometry x="330" y="20" width="80" height="30" as="geometry" />
        </mxCell>
        <mxCell id="v-dNHV7s0jWdKENIAIiw-7" value="" style="edgeStyle=orthogonalEdgeStyle;rounded=0;orthogonalLoop=1;jettySize=auto;html=1;" parent="WIyWlLk6GJQsqaUBKTNV-1" source="v-dNHV7s0jWdKENIAIiw-2" target="v-dNHV7s0jWdKENIAIiw-6" edge="1">
          <mxGeometry relative="1" as="geometry" />
        </mxCell>
        <mxCell id="v-dNHV7s0jWdKENIAIiw-2" value="main()" style="rounded=0;whiteSpace=wrap;html=1;" parent="WIyWlLk6GJQsqaUBKTNV-1" vertex="1">
          <mxGeometry x="345" y="100" width="50" height="20" as="geometry" />
        </mxCell>
        <mxCell id="v-dNHV7s0jWdKENIAIiw-4" value="" style="endArrow=none;dashed=1;html=1;dashPattern=1 3;strokeWidth=2;rounded=0;" parent="WIyWlLk6GJQsqaUBKTNV-1" edge="1">
          <mxGeometry width="50" height="50" relative="1" as="geometry">
            <mxPoint x="370" y="70" as="sourcePoint" />
            <mxPoint x="560" y="70" as="targetPoint" />
          </mxGeometry>
        </mxCell>
        <mxCell id="v-dNHV7s0jWdKENIAIiw-5" value="#include&amp;lt;iostream&amp;gt;&lt;br&gt;using namespace std;&lt;br&gt;const int n = 20;&lt;br&gt;int m[n];&lt;br&gt;int k=2;&lt;br&gt;int temp;" style="whiteSpace=wrap;html=1;aspect=fixed;" parent="WIyWlLk6GJQsqaUBKTNV-1" vertex="1">
          <mxGeometry x="560" y="10" width="140" height="140" as="geometry" />
        </mxCell>
        <mxCell id="v-dNHV7s0jWdKENIAIiw-9" value="" style="edgeStyle=orthogonalEdgeStyle;rounded=0;orthogonalLoop=1;jettySize=auto;html=1;" parent="WIyWlLk6GJQsqaUBKTNV-1" source="v-dNHV7s0jWdKENIAIiw-6" target="v-dNHV7s0jWdKENIAIiw-8" edge="1">
          <mxGeometry relative="1" as="geometry" />
        </mxCell>
        <mxCell id="v-dNHV7s0jWdKENIAIiw-6" value="setlocale(LC_ALL,&quot;Rus&quot;);" style="whiteSpace=wrap;html=1;rounded=0;" parent="WIyWlLk6GJQsqaUBKTNV-1" vertex="1">
          <mxGeometry x="300" y="160" width="140" height="20" as="geometry" />
        </mxCell>
        <mxCell id="v-dNHV7s0jWdKENIAIiw-11" value="" style="edgeStyle=orthogonalEdgeStyle;rounded=0;orthogonalLoop=1;jettySize=auto;html=1;" parent="WIyWlLk6GJQsqaUBKTNV-1" source="v-dNHV7s0jWdKENIAIiw-8" target="v-dNHV7s0jWdKENIAIiw-10" edge="1">
          <mxGeometry relative="1" as="geometry" />
        </mxCell>
        <mxCell id="v-dNHV7s0jWdKENIAIiw-17" style="edgeStyle=orthogonalEdgeStyle;rounded=0;orthogonalLoop=1;jettySize=auto;html=1;" parent="WIyWlLk6GJQsqaUBKTNV-1" source="v-dNHV7s0jWdKENIAIiw-8" edge="1">
          <mxGeometry relative="1" as="geometry">
            <mxPoint x="370" y="420" as="targetPoint" />
            <Array as="points">
              <mxPoint x="470" y="220" />
              <mxPoint x="470" y="390" />
              <mxPoint x="370" y="390" />
            </Array>
          </mxGeometry>
        </mxCell>
        <mxCell id="v-dNHV7s0jWdKENIAIiw-8" value="for(int t=0;i&amp;lt;n;i++)" style="shape=hexagon;perimeter=hexagonPerimeter2;whiteSpace=wrap;html=1;fixedSize=1;rounded=0;" parent="WIyWlLk6GJQsqaUBKTNV-1" vertex="1">
          <mxGeometry x="300" y="210" width="140" height="20" as="geometry" />
        </mxCell>
        <mxCell id="v-dNHV7s0jWdKENIAIiw-13" value="" style="edgeStyle=orthogonalEdgeStyle;rounded=0;orthogonalLoop=1;jettySize=auto;html=1;" parent="WIyWlLk6GJQsqaUBKTNV-1" source="v-dNHV7s0jWdKENIAIiw-10" target="v-dNHV7s0jWdKENIAIiw-12" edge="1">
          <mxGeometry relative="1" as="geometry" />
        </mxCell>
        <mxCell id="v-dNHV7s0jWdKENIAIiw-10" value="m[i]=rand()%200-100;" style="whiteSpace=wrap;html=1;rounded=0;" parent="WIyWlLk6GJQsqaUBKTNV-1" vertex="1">
          <mxGeometry x="305" y="260" width="130" height="20" as="geometry" />
        </mxCell>
        <mxCell id="v-dNHV7s0jWdKENIAIiw-14" style="edgeStyle=orthogonalEdgeStyle;rounded=0;orthogonalLoop=1;jettySize=auto;html=1;entryX=0;entryY=0.5;entryDx=0;entryDy=0;" parent="WIyWlLk6GJQsqaUBKTNV-1" source="v-dNHV7s0jWdKENIAIiw-12" target="v-dNHV7s0jWdKENIAIiw-8" edge="1">
          <mxGeometry relative="1" as="geometry">
            <Array as="points">
              <mxPoint x="370" y="360" />
              <mxPoint x="275" y="360" />
              <mxPoint x="275" y="220" />
            </Array>
          </mxGeometry>
        </mxCell>
        <mxCell id="v-dNHV7s0jWdKENIAIiw-12" value="cout&amp;lt;&amp;lt;m[i]&amp;lt;&amp;lt;&quot; &quot;;" style="shape=parallelogram;perimeter=parallelogramPerimeter;whiteSpace=wrap;html=1;fixedSize=1;rounded=0;" parent="WIyWlLk6GJQsqaUBKTNV-1" vertex="1">
          <mxGeometry x="295" y="310" width="150" height="20" as="geometry" />
        </mxCell>
        <mxCell id="-OUiE-6ZjnuVIrMrALZC-2" value="" style="edgeStyle=orthogonalEdgeStyle;rounded=0;orthogonalLoop=1;jettySize=auto;html=1;" edge="1" parent="WIyWlLk6GJQsqaUBKTNV-1" source="v-dNHV7s0jWdKENIAIiw-18" target="-OUiE-6ZjnuVIrMrALZC-1">
          <mxGeometry relative="1" as="geometry" />
        </mxCell>
        <mxCell id="v-dNHV7s0jWdKENIAIiw-18" value="cout&amp;lt;&amp;lt;endl;" style="shape=parallelogram;perimeter=parallelogramPerimeter;whiteSpace=wrap;html=1;fixedSize=1;" parent="WIyWlLk6GJQsqaUBKTNV-1" vertex="1">
          <mxGeometry x="305" y="420" width="130" height="20" as="geometry" />
        </mxCell>
        <mxCell id="v-dNHV7s0jWdKENIAIiw-31" value="" style="edgeStyle=orthogonalEdgeStyle;rounded=0;orthogonalLoop=1;jettySize=auto;html=1;" parent="WIyWlLk6GJQsqaUBKTNV-1" source="v-dNHV7s0jWdKENIAIiw-29" target="v-dNHV7s0jWdKENIAIiw-30" edge="1">
          <mxGeometry relative="1" as="geometry" />
        </mxCell>
        <mxCell id="v-dNHV7s0jWdKENIAIiw-34" value="" style="edgeStyle=orthogonalEdgeStyle;rounded=0;orthogonalLoop=1;jettySize=auto;html=1;" parent="WIyWlLk6GJQsqaUBKTNV-1" source="v-dNHV7s0jWdKENIAIiw-29" target="v-dNHV7s0jWdKENIAIiw-33" edge="1">
          <mxGeometry relative="1" as="geometry" />
        </mxCell>
        <mxCell id="v-dNHV7s0jWdKENIAIiw-29" value="for(int t=0;t&amp;lt;n;t++)" style="shape=hexagon;perimeter=hexagonPerimeter2;whiteSpace=wrap;html=1;fixedSize=1;" parent="WIyWlLk6GJQsqaUBKTNV-1" vertex="1">
          <mxGeometry x="310" y="780" width="120" height="30" as="geometry" />
        </mxCell>
        <mxCell id="v-dNHV7s0jWdKENIAIiw-32" style="edgeStyle=orthogonalEdgeStyle;rounded=0;orthogonalLoop=1;jettySize=auto;html=1;entryX=0;entryY=0.5;entryDx=0;entryDy=0;" parent="WIyWlLk6GJQsqaUBKTNV-1" source="v-dNHV7s0jWdKENIAIiw-30" target="v-dNHV7s0jWdKENIAIiw-29" edge="1">
          <mxGeometry relative="1" as="geometry">
            <Array as="points">
              <mxPoint x="370" y="890" />
              <mxPoint x="285" y="890" />
              <mxPoint x="285" y="795" />
            </Array>
          </mxGeometry>
        </mxCell>
        <mxCell id="v-dNHV7s0jWdKENIAIiw-30" value="cout&amp;lt;&amp;lt;m[t]&amp;lt;&amp;lt;&quot; &quot;;" style="shape=parallelogram;perimeter=parallelogramPerimeter;whiteSpace=wrap;html=1;fixedSize=1;" parent="WIyWlLk6GJQsqaUBKTNV-1" vertex="1">
          <mxGeometry x="305" y="840" width="130" height="25" as="geometry" />
        </mxCell>
        <mxCell id="v-dNHV7s0jWdKENIAIiw-36" value="" style="edgeStyle=orthogonalEdgeStyle;rounded=0;orthogonalLoop=1;jettySize=auto;html=1;" parent="WIyWlLk6GJQsqaUBKTNV-1" source="v-dNHV7s0jWdKENIAIiw-33" target="v-dNHV7s0jWdKENIAIiw-35" edge="1">
          <mxGeometry relative="1" as="geometry" />
        </mxCell>
        <mxCell id="v-dNHV7s0jWdKENIAIiw-33" value="return(0);" style="whiteSpace=wrap;html=1;" parent="WIyWlLk6GJQsqaUBKTNV-1" vertex="1">
          <mxGeometry x="480" y="782.5" width="60" height="25" as="geometry" />
        </mxCell>
        <mxCell id="v-dNHV7s0jWdKENIAIiw-35" value="конец" style="ellipse;whiteSpace=wrap;html=1;" parent="WIyWlLk6GJQsqaUBKTNV-1" vertex="1">
          <mxGeometry x="600" y="781.25" width="40" height="27.5" as="geometry" />
        </mxCell>
        <mxCell id="v-dNHV7s0jWdKENIAIiw-37" value="{" style="text;html=1;align=center;verticalAlign=middle;resizable=0;points=[];autosize=1;strokeColor=none;fillColor=none;" parent="WIyWlLk6GJQsqaUBKTNV-1" vertex="1">
          <mxGeometry x="345" y="120" width="30" height="30" as="geometry" />
        </mxCell>
        <mxCell id="v-dNHV7s0jWdKENIAIiw-38" value="};" style="text;html=1;align=center;verticalAlign=middle;resizable=0;points=[];autosize=1;strokeColor=none;fillColor=none;" parent="WIyWlLk6GJQsqaUBKTNV-1" vertex="1">
          <mxGeometry x="560" y="770" width="30" height="30" as="geometry" />
        </mxCell>
        <mxCell id="v-dNHV7s0jWdKENIAIiw-39" value="{" style="text;html=1;align=center;verticalAlign=middle;resizable=0;points=[];autosize=1;strokeColor=none;fillColor=none;" parent="WIyWlLk6GJQsqaUBKTNV-1" vertex="1">
          <mxGeometry x="340" y="230" width="30" height="30" as="geometry" />
        </mxCell>
        <mxCell id="v-dNHV7s0jWdKENIAIiw-40" value="};" style="text;html=1;align=center;verticalAlign=middle;resizable=0;points=[];autosize=1;strokeColor=none;fillColor=none;" parent="WIyWlLk6GJQsqaUBKTNV-1" vertex="1">
          <mxGeometry x="365" y="328" width="30" height="30" as="geometry" />
        </mxCell>
        <mxCell id="v-dNHV7s0jWdKENIAIiw-43" value="{" style="text;html=1;align=center;verticalAlign=middle;resizable=0;points=[];autosize=1;strokeColor=none;fillColor=none;" parent="WIyWlLk6GJQsqaUBKTNV-1" vertex="1">
          <mxGeometry x="345" y="808" width="30" height="30" as="geometry" />
        </mxCell>
        <mxCell id="v-dNHV7s0jWdKENIAIiw-44" value="};" style="text;html=1;align=center;verticalAlign=middle;resizable=0;points=[];autosize=1;strokeColor=none;fillColor=none;" parent="WIyWlLk6GJQsqaUBKTNV-1" vertex="1">
          <mxGeometry x="365" y="858" width="30" height="30" as="geometry" />
        </mxCell>
        <mxCell id="-OUiE-6ZjnuVIrMrALZC-4" value="" style="edgeStyle=orthogonalEdgeStyle;rounded=0;orthogonalLoop=1;jettySize=auto;html=1;" edge="1" parent="WIyWlLk6GJQsqaUBKTNV-1" source="-OUiE-6ZjnuVIrMrALZC-1" target="-OUiE-6ZjnuVIrMrALZC-3">
          <mxGeometry relative="1" as="geometry" />
        </mxCell>
        <mxCell id="-OUiE-6ZjnuVIrMrALZC-13" style="edgeStyle=orthogonalEdgeStyle;rounded=0;orthogonalLoop=1;jettySize=auto;html=1;" edge="1" parent="WIyWlLk6GJQsqaUBKTNV-1" source="-OUiE-6ZjnuVIrMrALZC-1" target="v-dNHV7s0jWdKENIAIiw-29">
          <mxGeometry relative="1" as="geometry">
            <Array as="points">
              <mxPoint x="530" y="470" />
              <mxPoint x="530" y="750" />
              <mxPoint x="370" y="750" />
            </Array>
          </mxGeometry>
        </mxCell>
        <mxCell id="-OUiE-6ZjnuVIrMrALZC-1" value="for(int t=0;t&amp;lt;k;t++)" style="shape=hexagon;perimeter=hexagonPerimeter2;whiteSpace=wrap;html=1;fixedSize=1;" vertex="1" parent="WIyWlLk6GJQsqaUBKTNV-1">
          <mxGeometry x="310" y="460" width="120" height="20" as="geometry" />
        </mxCell>
        <mxCell id="-OUiE-6ZjnuVIrMrALZC-6" value="" style="edgeStyle=orthogonalEdgeStyle;rounded=0;orthogonalLoop=1;jettySize=auto;html=1;" edge="1" parent="WIyWlLk6GJQsqaUBKTNV-1" source="-OUiE-6ZjnuVIrMrALZC-3" target="-OUiE-6ZjnuVIrMrALZC-5">
          <mxGeometry relative="1" as="geometry" />
        </mxCell>
        <mxCell id="-OUiE-6ZjnuVIrMrALZC-3" value="temp=m[0];" style="whiteSpace=wrap;html=1;" vertex="1" parent="WIyWlLk6GJQsqaUBKTNV-1">
          <mxGeometry x="335" y="510" width="70" height="20" as="geometry" />
        </mxCell>
        <mxCell id="-OUiE-6ZjnuVIrMrALZC-8" value="" style="edgeStyle=orthogonalEdgeStyle;rounded=0;orthogonalLoop=1;jettySize=auto;html=1;" edge="1" parent="WIyWlLk6GJQsqaUBKTNV-1" source="-OUiE-6ZjnuVIrMrALZC-5" target="-OUiE-6ZjnuVIrMrALZC-7">
          <mxGeometry relative="1" as="geometry" />
        </mxCell>
        <mxCell id="-OUiE-6ZjnuVIrMrALZC-10" style="edgeStyle=orthogonalEdgeStyle;rounded=0;orthogonalLoop=1;jettySize=auto;html=1;" edge="1" parent="WIyWlLk6GJQsqaUBKTNV-1" source="-OUiE-6ZjnuVIrMrALZC-5">
          <mxGeometry relative="1" as="geometry">
            <mxPoint x="370" y="680" as="targetPoint" />
            <Array as="points">
              <mxPoint x="460" y="560" />
              <mxPoint x="460" y="670" />
              <mxPoint x="370" y="670" />
            </Array>
          </mxGeometry>
        </mxCell>
        <mxCell id="-OUiE-6ZjnuVIrMrALZC-5" value="for(int t1=0;t1&amp;lt;n-1;t1++)" style="shape=hexagon;perimeter=hexagonPerimeter2;whiteSpace=wrap;html=1;fixedSize=1;" vertex="1" parent="WIyWlLk6GJQsqaUBKTNV-1">
          <mxGeometry x="290" y="550" width="160" height="20" as="geometry" />
        </mxCell>
        <mxCell id="-OUiE-6ZjnuVIrMrALZC-9" style="edgeStyle=orthogonalEdgeStyle;rounded=0;orthogonalLoop=1;jettySize=auto;html=1;entryX=0;entryY=0.5;entryDx=0;entryDy=0;" edge="1" parent="WIyWlLk6GJQsqaUBKTNV-1" source="-OUiE-6ZjnuVIrMrALZC-7" target="-OUiE-6ZjnuVIrMrALZC-5">
          <mxGeometry relative="1" as="geometry">
            <Array as="points">
              <mxPoint x="370" y="650" />
              <mxPoint x="270" y="650" />
              <mxPoint x="270" y="560" />
            </Array>
          </mxGeometry>
        </mxCell>
        <mxCell id="-OUiE-6ZjnuVIrMrALZC-7" value="m[t1]=m[t1+1];" style="whiteSpace=wrap;html=1;" vertex="1" parent="WIyWlLk6GJQsqaUBKTNV-1">
          <mxGeometry x="330" y="600" width="80" height="20" as="geometry" />
        </mxCell>
        <mxCell id="-OUiE-6ZjnuVIrMrALZC-12" style="edgeStyle=orthogonalEdgeStyle;rounded=0;orthogonalLoop=1;jettySize=auto;html=1;entryX=0;entryY=0.5;entryDx=0;entryDy=0;" edge="1" parent="WIyWlLk6GJQsqaUBKTNV-1" source="-OUiE-6ZjnuVIrMrALZC-11" target="-OUiE-6ZjnuVIrMrALZC-1">
          <mxGeometry relative="1" as="geometry">
            <Array as="points">
              <mxPoint x="370" y="730" />
              <mxPoint x="250" y="730" />
              <mxPoint x="250" y="470" />
            </Array>
          </mxGeometry>
        </mxCell>
        <mxCell id="-OUiE-6ZjnuVIrMrALZC-11" value="m[n-1]=temp;" style="rounded=0;whiteSpace=wrap;html=1;" vertex="1" parent="WIyWlLk6GJQsqaUBKTNV-1">
          <mxGeometry x="330" y="680" width="80" height="20" as="geometry" />
        </mxCell>
        <mxCell id="-OUiE-6ZjnuVIrMrALZC-14" value="{" style="text;html=1;align=center;verticalAlign=middle;resizable=0;points=[];autosize=1;strokeColor=none;fillColor=none;" vertex="1" parent="WIyWlLk6GJQsqaUBKTNV-1">
          <mxGeometry x="345" y="478" width="30" height="30" as="geometry" />
        </mxCell>
        <mxCell id="-OUiE-6ZjnuVIrMrALZC-15" value="};" style="text;html=1;align=center;verticalAlign=middle;resizable=0;points=[];autosize=1;strokeColor=none;fillColor=none;" vertex="1" parent="WIyWlLk6GJQsqaUBKTNV-1">
          <mxGeometry x="365" y="698" width="30" height="30" as="geometry" />
        </mxCell>
        <mxCell id="-OUiE-6ZjnuVIrMrALZC-16" value="{" style="text;html=1;align=center;verticalAlign=middle;resizable=0;points=[];autosize=1;strokeColor=none;fillColor=none;" vertex="1" parent="WIyWlLk6GJQsqaUBKTNV-1">
          <mxGeometry x="345" y="568" width="30" height="30" as="geometry" />
        </mxCell>
        <mxCell id="-OUiE-6ZjnuVIrMrALZC-17" value="};" style="text;html=1;align=center;verticalAlign=middle;resizable=0;points=[];autosize=1;strokeColor=none;fillColor=none;" vertex="1" parent="WIyWlLk6GJQsqaUBKTNV-1">
          <mxGeometry x="365" y="618" width="30" height="30" as="geometry" />
        </mxCell>
      </root>
    </mxGraphModel>
  </diagram>
</mxfile>
